<svg height="24" role="img" viewBox="0 0 24 24" width="24" xmlns="http://www.w3.org/2000/svg" role="img" fill="rgb(245, 245, 245)" color="rgb(245, 245, 245)" class="_ab6-" aria-label="New post">

 <g>
  <title>Layer 1</title>
  <path id="svg_1" stroke-width="2px" stroke-linejoin="round" stroke-linecap="round" stroke="#F5F5F5" fill="none" d="m2,12.08475l0,3.45c0,2.849 0.698,4.005 1.606,4.944c0.94,0.909 2.098,1.608 4.946,1.608l6.896,0c2.848,0 4.006,-0.7 4.946,-1.608c0.908,-0.939 1.606,-2.094 1.606,-4.944l0,-6.898c0,-2.849 -0.698,-4.006 -1.606,-4.945c-0.94,-0.907 -2.098,-1.607 -4.946,-1.607l-6.896,0c-2.848,0 -4.006,0.699 -4.946,1.607c-0.908,0.94 -1.606,2.096 -1.606,4.945l0,3.448z"/>
  <path stroke="#F5F5F5" id="svg_2" stroke-width="2px" stroke-miterlimit="10" stroke-linecap="round" fill="none" d="m5.26022,21.57627l0,-1.24538a3.92549,3.92549 0 0 1 3.92549,-3.92549l5.62858,0a3.92549,3.92549 0 0 1 3.92549,3.92549l0,1.24538"/>
  <circle stroke="#F5F5F5" id="svg_3" stroke-width="2px" stroke-miterlimit="10" stroke-linecap="round" r="3.66102" fill="none" cy="9.72563" cx="12"/>
 </g>
</svg>